# xmcd
#
# Track frame offsets: 
#        150
#        12088
#        21788
#        34040
#        48242
#        61899
#        76494
#        87876
#        100083
#        112681
#        126224
#        137684
#        147410
#        158507
#        172798
#        183224
#        196119
#        209428
#        220637
#        233414
#        245203
#        258881
#        268409
#        280798
#        292614
#        304225
#
# Disc length: 4206 seconds
#
# Revision: 0
# Processed by: cddbd v1.5.2PL0 Copyright (c) Steve Scherf et al.
# Submitted via: ExactAudioCopy v1.0b1
#
DISCID=55106c1a
DTITLE=Marv Johnson - I'll Pick A Rose For My Rose
DYEAR=2011
DGENRE=R&B
TTITLE0=I'll Pick A Rose For My Rose (stereo)
TTITLE1=I'm Not A Plaything (stereo)
TTITLE2=Just The Way You Are (stereo)
TTITLE3=Sleep (Little One) (stereo)
TTITLE4=Bad Girl (stereo)
TTITLE5=Everybody's Gotta Pay Some Dues (stereo)
TTITLE6=So Glad You Chose Me (stereo)
TTITLE7=I Wish I Liked You (As Much As I Love You) (stereo)
TTITLE8=I Miss You Baby (How I Miss You) (stereo)
TTITLE9=Why Do You Want To Let Me Go (stereo)
TTITLE10=You Got The Love I Love (stereo)
TTITLE11=There Goes A Lonely Man (mono)
TTITLE12=Understanding (mono)
TTITLE13=S.O.S. (Girl In Distress) (stereo)
TTITLE14=Let's Talk It Over (mono)
TTITLE15=Save My Love For A Rainy Day (mono)
TTITLE16=She's All In Need (In This World) (mono)
TTITLE17=Farewell Is A Lonely Sound (mono)
TTITLE18=Another Lonely Night (Completes Another Empty Day) (mono)
TTITLE19=Just Look Through Your Window At The World (mono)
TTITLE20=Why Do You Want To Let Me Go (mono single mix)
TTITLE21=I'm Not A Plaything (mono single mix)
TTITLE22=I Miss You Baby (How I Miss You) (mono single mix)
TTITLE23=Just The Way You Are (mono single mix)
TTITLE24=I'll Pick A Rose For My Rose (mono single mix)
TTITLE25=You Got The Love I Love (mono single mix)
EXTD=
EXTT0=
EXTT1=
EXTT2=
EXTT3=
EXTT4=
EXTT5=
EXTT6=
EXTT7=
EXTT8=
EXTT9=
EXTT10=
EXTT11=
EXTT12=
EXTT13=
EXTT14=
EXTT15=
EXTT16=
EXTT17=
EXTT18=
EXTT19=
EXTT20=
EXTT21=
EXTT22=
EXTT23=
EXTT24=
EXTT25=
PLAYORDER=
